# xmcd CD database file
#
# Track frame offsets:
#	183
#	21093
#	43183
#	61615
#	77145
#	98813
#	122758
#	142185
#	164783
#	199703
#	213195
#	232915
#	247738
#	259985
#	275803
#
# Disc length: 3836 seconds
#
# Revision: 4
# Processed by: cddbd v1.5.1PL0 Copyright (c) Steve Scherf et al.
# Submitted via: CDex 1.51
#
DISCID=d60efa0f
DTITLE=Otis Grand - Nothing Else Matters
DYEAR=1994
DGENRE=Blues
TTITLE0=Finish Line
TTITLE1=Careless Living
TTITLE2=No Reason
TTITLE3=5 To 99 Blues
TTITLE4=Mother-In-Law Blues
TTITLE5=Marginal Man
TTITLE6=Looking For A New Baby
TTITLE7=Things I Forget To Do
TTITLE8=Waiting For The Hard Times To Go
TTITLE9=Coldburn (The Master's Gone)
TTITLE10=All Night Long
TTITLE11=Common Sense
TTITLE12=Days Of Old
TTITLE13=You Win, I Lose
TTITLE14=Looking Good
EXTD=YEAR: 1994
EXTT0=
EXTT1=
EXTT2=
EXTT3=
EXTT4=
EXTT5=
EXTT6=
EXTT7=
EXTT8=
EXTT9=
EXTT10=
EXTT11=
EXTT12=
EXTT13=
EXTT14=
PLAYORDER=
